Patient4_TMGait_0pt6_01_right_13_GRF.mot
version=1
nRows=71
nColumns=19
inDegrees=no
endheader
time	F1x	F1y	F1z	M1x	M1y	M1z	F2x	F2y	F2z	M2x	M2y	M2z	EC1x	EC1y	EC1z	EC2x	EC2y	EC2z
15.18	-9.2881	767.1973	69.9234	-263.3997	-65.7838	695.5879	7.577	-2.007	-1.8432	0.65989	1.1789	1.6979	-0.0592	0.0182	-0.0073	-0.0462	0.0165	0.9585
15.1924	-7.0543	759.7519	69.8144	-260.4542	-63.9627	687.0428	4.8938	-0.40072	-1.3706	0.86035	1.0095	2.0401	-0.0592	0.0182	-0.0073	-0.0462	0.0165	0.9585
15.2047	-4.9087	752.183	69.7149	-257.2821	-62.1555	677.8671	2.6194	0.97693	-0.94859	1.035	0.83977	2.3688	-0.0592	0.0182	-0.0073	-0.0462	0.0165	0.9585
15.2171	-2.933	745.1185	69.6183	-254.1413	-60.4472	668.673	0.87786	2.0615	-0.61296	1.1805	0.69499	2.6749	-0.0592	0.0182	-0.0073	-0.0462	0.0165	0.9585
15.2294	-1.125	739.0265	69.513	-251.2521	-58.8616	659.9312	-0.31844	2.8446	-0.36823	1.2941	0.58018	2.9318	-0.0592	0.0182	-0.0073	-0.0462	0.0165	0.9585
15.2418	0.57914	734.179	69.3871	-248.7688	-57.3783	651.9165	-1.0685	3.3726	-0.20666	1.3797	0.50299	3.1553	-0.0592	0.0182	-0.0073	-0.0462	0.0165	0.9585
15.2541	2.2582	730.6557	69.2477	-246.771	-55.9753	644.7281	-1.4759	3.6811	-0.11344	1.4347	0.45942	3.3289	-0.0592	0.0182	-0.0073	-0.0462	0.0165	0.9585
15.2665	4.0198	728.3762	69.0887	-245.2737	-54.6035	638.3086	-1.6657	3.8002	-0.074289	1.4516	0.45072	3.4338	-0.0592	0.0182	-0.0073	-0.0462	0.0165	0.9585
15.2789	5.97	727.1721	68.8946	-244.2489	-53.2053	632.5318	-1.7309	3.7139	-0.074078	1.4084	0.47189	3.3957	-0.0592	0.0182	-0.0073	-0.0462	0.0165	0.9585
15.2912	8.2188	726.8489	68.6352	-243.6433	-51.7058	627.2327	-1.7402	3.382	-0.10252	1.274	0.52212	3.1348	-0.0592	0.0182	-0.0073	-0.0462	0.0165	0.9585
15.3036	10.8654	727.2271	68.2983	-243.3898	-50.0501	622.2599	-1.7334	2.7204	-0.14999	1.0052	0.59675	2.5391	-0.0592	0.0182	-0.0073	-0.0462	0.0165	0.9585
15.3159	13.9636	728.1713	67.8834	-243.42	-48.2073	617.5109	-1.7315	1.6338	-0.20844	0.55533	0.68796	1.4927	-0.0592	0.0182	-0.0073	-0.0462	0.0165	0.9585
15.3283	17.5426	729.5916	67.4064	-243.6702	-46.1704	612.9236	-1.7286	0.047652	-0.26792	-0.11226	0.77743	-0.090754	-0.0592	0.0182	-0.0073	-0.0462	0.0165	0.9585
15.3406	21.5709	731.4365	66.8978	-244.0861	-43.9659	608.5132	-1.6811	-2.0644	-0.31098	-1.0093	0.82945	-2.2379	-0.0592	0.0182	-0.0073	-0.0462	0.0165	0.9585
15.353	25.9695	733.6402	66.3907	-244.6102	-41.6388	604.3131	-1.5322	-4.6045	-0.30634	-2.0941	0.78352	-4.8387	-0.0592	0.0182	-0.0073	-0.0462	0.0165	0.9585
15.3654	30.576	736.0719	65.9313	-245.1677	-39.2758	600.3483	-1.1877	-7.2897	-0.21233	-3.2407	0.55525	-7.6051	-0.0592	0.0182	-0.0073	-0.0462	0.0165	0.9585
15.3777	35.1956	738.47	65.5489	-245.6512	-36.9653	596.5535	-0.5493	-9.5548	0.017066	-4.2017	0.052948	-9.955	-0.0592	0.0182	-0.0073	-0.0462	0.0165	0.9585
15.3901	39.5967	740.4391	65.2545	-245.9166	-34.7976	592.7712	0.50185	-10.4547	0.43342	-4.5657	-0.8202	-10.9196	-0.0592	0.0182	-0.0073	-0.0462	0.0165	0.9585
15.4024	43.5615	741.4419	65.0242	-245.7849	-32.8356	588.7104	2.0518	-8.5727	1.0835	-3.72	-2.1386	-9.0349	-0.0592	0.0182	-0.0073	-0.0462	0.0165	0.9585
15.4148	46.9376	740.8623	64.814	-245.0593	-31.1118	583.9839	4.1401	-2.0165	1.9895	-0.84704	-3.9299	-2.3534	-0.0592	0.0182	-0.0073	-0.0462	0.0165	0.9585
15.4271	49.6628	738.0784	64.5466	-243.55	-29.6066	578.1483	6.6778	11.5254	3.1333	5.0462	-6.1308	11.5096	-0.0592	0.0182	-0.0073	-0.0462	0.0165	0.9585
15.4395	51.7738	732.4261	64.1235	-241.0623	-28.2548	570.6719	9.3943	34.5104	4.4039	15.0116	-8.502	35.0801	-0.0592	0.0182	-0.0073	-0.0462	0.0165	0.9585
15.4519	53.3455	723.1316	63.3833	-237.3738	-26.9244	560.9	11.6683	69.0892	5.5958	29.9624	-10.5528	70.5612	-0.0592	0.0182	-0.0073	-0.0462	0.0165	0.9585
15.4642	54.4633	709.1995	62.1342	-232.1968	-25.457	547.9819	12.3749	116.3633	6.4222	50.35	-11.4991	119.0796	-0.0592	0.0182	-0.0073	-0.0462	0.0165	0.9585
15.4766	55.1393	689.3732	60.1468	-225.1622	-23.6807	530.8909	10.1274	175.255	6.5361	75.6807	-10.3976	179.5262	-0.0592	0.0182	-0.0073	-0.0462	0.0165	0.9585
15.4889	55.2659	662.1945	57.2058	-215.8315	-21.4724	508.4778	4.0398	241.5003	5.4509	104.0822	-6.4054	247.5021	-0.0592	0.0182	-0.0073	-0.0462	0.0165	0.9585
15.5013	54.5979	626.3078	53.1657	-203.7912	-18.8025	479.7184	-4.9819	308.1011	2.5204	132.5208	0.69081	315.6981	-0.0592	0.0182	-0.0073	-0.0462	0.0165	0.9585
15.5136	52.8468	581.0159	48.0632	-188.8254	-15.7904	444.0983	-15.0047	368.8998	-2.3235	158.3509	10.061	377.513	-0.0592	0.0182	-0.0073	-0.0462	0.0165	0.9585
15.526	49.7628	526.7527	42.1488	-171.0616	-12.6884	401.9664	-24.369	421.4421	-8.3912	180.5384	20.2713	430.1344	-0.0592	0.0182	-0.0073	-0.0462	0.0165	0.9585
15.5384	45.2628	465.0833	35.8639	-150.9784	-9.8271	354.4962	-31.975	466.3182	-14.9222	199.3767	30.0786	474.036	-0.0592	0.0182	-0.0073	-0.0462	0.0165	0.9585
15.5507	39.3815	398.5135	29.6584	-129.3528	-7.492	303.5703	-37.3225	505.5838	-21.0937	215.7965	38.4591	511.3118	-0.0592	0.0182	-0.0073	-0.0462	0.0165	0.9585
15.5631	32.3001	330.1727	23.9004	-107.167	-5.8689	251.5143	-40.4537	541.4909	-26.4707	230.7848	45.0124	544.3732	-0.0592	0.0182	-0.0073	-0.0462	0.0165	0.9585
15.5754	24.3687	263.4591	18.8457	-85.4989	-5.0206	200.8479	-41.6995	575.7312	-30.8758	245.0677	49.7323	575.067	-0.0592	0.0182	-0.0073	-0.0462	0.0165	0.9585
15.5878	16.1729	201.6109	14.6111	-65.3918	-4.8359	153.9577	-41.6799	609.3992	-34.546	259.0651	53.1298	604.7204	-0.0592	0.0182	-0.0073	-0.0462	0.0165	0.9585
15.6001	8.4608	147.2017	11.2066	-47.6896	-5.0744	112.7291	-41.0311	642.8675	-37.8058	272.8713	55.8162	633.9215	-0.0592	0.0182	-0.0073	-0.0462	0.0165	0.9585
15.6125	1.977	101.694	8.5128	-32.8841	-5.3988	78.2117	-40.4044	675.8376	-41.0462	286.2822	58.4526	662.6138	-0.0592	0.0182	-0.0073	-0.0462	0.0165	0.9585
15.6249	-2.7658	65.4348	6.3461	-21.1031	-5.4985	50.641	-40.2565	707.4823	-44.4528	298.8938	61.4214	690.1508	-0.0592	0.0182	-0.0073	-0.0462	0.0165	0.9585
15.6372	-5.5644	37.9581	4.5382	-12.1999	-5.1781	29.6683	-40.8668	736.7099	-48.0803	310.2133	64.8884	715.5968	-0.0592	0.0182	-0.0073	-0.0462	0.0165	0.9585
15.6496	-6.5004	18.3005	2.9939	-5.855	-4.4024	14.5786	-42.1926	762.3011	-51.7243	319.7372	68.6393	737.8058	-0.0592	0.0182	-0.0073	-0.0462	0.0165	0.9585
15.6619	-6.0144	5.2979	1.683	-1.6778	-3.2999	4.5223	-43.9919	783.0536	-55.0856	326.9933	72.28	755.6115	-0.0592	0.0182	-0.0073	-0.0462	0.0165	0.9585
15.6743	-4.7965	-2.3282	0.68004	0.7588	-2.1621	-1.4358	-45.8989	797.7811	-57.8351	331.5472	75.3404	767.8082	-0.0592	0.0182	-0.0073	-0.0462	0.0165	0.9585
15.6866	-3.3508	-5.9893	-0.013312	1.9172	-1.1661	-4.326	-47.5364	805.5225	-59.8016	333.0722	77.5016	773.3947	-0.0592	0.0182	-0.0073	-0.0462	0.0165	0.9585
15.699	-1.9776	-7.0042	-0.44606	2.2264	-0.3827	-5.1408	-48.5695	805.8486	-60.9217	331.4736	78.5737	771.8664	-0.0592	0.0182	-0.0073	-0.0462	0.0165	0.9585
15.7114	-0.83446	-6.455	-0.67895	2.0356	0.17564	-4.7189	-48.7908	799.0757	-61.2545	326.9697	78.5405	763.4465	-0.0592	0.0182	-0.0073	-0.0462	0.0165	0.9585
15.7237	0.02902	-5.1405	-0.76873	1.6012	0.53296	-3.6887	-48.1512	786.3652	-60.8889	320.1233	77.481	749.1777	-0.0592	0.0182	-0.0073	-0.0462	0.0165	0.9585
15.7361	0.62356	-3.6057	-0.76588	1.0969	0.73018	-2.4713	-46.7093	769.6408	-59.9512	311.8034	75.5596	730.816	-0.0592	0.0182	-0.0073	-0.0462	0.0165	0.9585
15.7484	0.98558	-2.1713	-0.71435	0.62425	0.81321	-1.3163	-44.6187	751.32	-58.5673	303.0687	72.9747	710.5893	-0.0592	0.0182	-0.0073	-0.0462	0.0165	0.9585
15.7608	1.1707	-0.98732	-0.64674	0.23136	0.8247	-0.35157	-42.0526	733.8824	-56.8925	294.9838	69.9572	690.7771	-0.0592	0.0182	-0.0073	-0.0462	0.0165	0.9585
15.7731	1.2313	-0.094667	-0.58187	-0.067409	0.79627	0.38036	-39.1969	719.498	-55.0726	288.46	66.7243	673.3762	-0.0592	0.0182	-0.0073	-0.0462	0.0165	0.9585
15.7855	1.213	0.52026	-0.52451	-0.2751	0.74534	0.88432	-36.18	709.7531	-53.2382	284.1503	63.4516	659.814	-0.0592	0.0182	-0.0073	-0.0462	0.0165	0.9585
15.7979	1.1488	0.90659	-0.47597	-0.40772	0.68491	1.2086	-33.1016	705.5698	-51.5006	282.4156	60.274	650.9	-0.0592	0.0182	-0.0073	-0.0462	0.0165	0.9585
15.8102	1.0742	1.1231	-0.43466	-0.48597	0.62528	1.3938	-29.9783	707.1398	-49.9505	283.305	57.2734	646.7554	-0.0592	0.0182	-0.0073	-0.0462	0.0165	0.9585
15.8226	0.99687	1.2239	-0.40079	-0.52728	0.56921	1.482	-26.8118	713.9521	-48.6729	286.5687	54.508	646.8836	-0.0592	0.0182	-0.0073	-0.0462	0.0165	0.9585
15.8349	0.92675	1.2451	-0.37408	-0.54072	0.5196	1.4889	-23.5456	724.885	-47.7172	291.7027	51.9787	650.2444	-0.0592	0.0182	-0.0073	-0.0462	0.0165	0.9585
15.8473	0.85018	1.2188	-0.35182	-0.53408	0.47178	1.4366	-20.1227	738.4026	-47.1085	298.0284	49.6663	655.4736	-0.0592	0.0182	-0.0073	-0.0462	0.0165	0.9585
15.8596	0.75969	1.1442	-0.3302	-0.50681	0.41865	1.3199	-16.4865	752.7854	-46.8053	304.7927	47.4972	661.0959	-0.0592	0.0182	-0.0073	-0.0462	0.0165	0.9585
15.872	0.63426	0.98654	-0.30927	-0.44781	0.35181	1.1196	-12.6415	766.4046	-46.7463	311.2729	45.4067	665.8041	-0.0592	0.0182	-0.0073	-0.0462	0.0165	0.9585
15.8844	0.4718	0.68645	-0.28928	-0.33654	0.27024	0.78068	-8.7063	777.889	-46.8323	316.8489	43.3456	668.5866	-0.0592	0.0182	-0.0073	-0.0462	0.0165	0.9585
15.8967	0.26372	0.16642	-0.27279	-0.14353	0.17946	0.23484	-4.9045	786.2174	-46.9927	321.0393	41.3384	668.7908	-0.0592	0.0182	-0.0073	-0.0462	0.0165	0.9585
15.9091	0.026974	-0.65378	-0.26137	0.16225	0.091493	-0.5968	-1.4965	790.7345	-47.1795	323.5109	39.4541	666.1052	-0.0592	0.0182	-0.0073	-0.0462	0.0165	0.9585
15.9214	-0.20549	-1.8412	-0.25778	0.60651	0.019435	-1.7788	1.3032	791.089	-47.4051	324.0671	37.8075	660.4532	-0.0592	0.0182	-0.0073	-0.0462	0.0165	0.9585
15.9338	-0.36968	-3.4151	-0.26529	1.1942	-0.013722	-3.3399	3.3827	787.276	-47.6988	322.6755	36.4906	651.9781	-0.0592	0.0182	-0.0073	-0.0462	0.0165	0.9585
15.9461	-0.36908	-5.3004	-0.28597	1.8951	0.028259	-5.2097	4.8121	779.7327	-48.0893	319.5106	35.5261	641.0903	-0.0592	0.0182	-0.0073	-0.0462	0.0165	0.9585
15.9585	-0.056955	-7.2617	-0.32687	2.6214	0.20248	-7.158	5.7888	769.3503	-48.581	314.9542	34.8551	628.4902	-0.0592	0.0182	-0.0073	-0.0462	0.0165	0.9585
15.9709	0.74846	-8.8355	-0.39758	3.2015	0.58318	-8.728	6.5681	757.3326	-49.1923	309.5305	34.3974	615.07	-0.0592	0.0182	-0.0073	-0.0462	0.0165	0.9585
15.9832	2.2557	-9.2756	-0.50878	3.3625	1.2562	-9.1798	7.3888	745.0047	-49.9524	303.8192	34.0834	601.7965	-0.0592	0.0182	-0.0073	-0.0462	0.0165	0.9585
15.9956	4.6719	-7.4913	-0.67229	2.7072	2.3069	-7.4242	8.4379	733.5535	-50.8761	298.3497	33.8527	589.519	-0.0592	0.0182	-0.0073	-0.0462	0.0165	0.9585
16.0079	8.1447	-2.0314	-0.89421	0.70374	3.7914	-2.0063	9.8415	723.8212	-51.9409	293.5086	33.6402	578.8315	-0.0592	0.0182	-0.0073	-0.0462	0.0165	0.9585
16.0203	12.6849	8.8391	-1.1711	-3.2854	5.7044	8.8124	11.6931	716.1488	-53.0609	289.4753	33.3434	569.9386	-0.0592	0.0182	-0.0073	-0.0462	0.0165	0.9585
16.0326	18.0328	26.9287	-1.4781	-9.9213	7.9284	26.8662	14.0188	710.3163	-54.0901	286.1992	32.8356	562.6294	-0.0592	0.0182	-0.0073	-0.0462	0.0165	0.9585
16.045	23.4935	53.7013	-1.7688	-19.7351	10.1651	53.6446	16.7836	705.5241	-54.8339	283.3912	31.9817	556.259	-0.0592	0.0182	-0.0073	-0.0462	0.0165	0.9585
